<svg width="26" height="26" viewBox="0 0 26 26" fill="none" xmlns="http://www.w3.org/2000/svg">
<path d="M5.68749 4.3335H20.3125C21.2118 4.33344 22.0771 4.67751 22.7307 5.29514C23.3844 5.91277 23.777 6.75712 23.8279 7.655L23.8333 7.85433V18.146C23.8334 19.0453 23.4893 19.9106 22.8717 20.5642C22.2541 21.2179 21.4097 21.6105 20.5118 21.6614L20.3125 21.6668H5.68749C4.78817 21.6669 3.92293 21.3228 3.26924 20.7052C2.61555 20.0876 2.22299 19.2432 2.17207 18.3453L2.16666 18.146V7.85433C2.1666 6.95501 2.51067 6.08977 3.1283 5.43608C3.74593 4.78239 4.59028 4.38983 5.48816 4.33891L5.68749 4.3335ZM22.2083 10.1542L13.3792 14.8017C13.2795 14.8544 13.1699 14.8858 13.0574 14.8938C12.945 14.9018 12.8321 14.8863 12.7259 14.8483L12.6219 14.8028L3.79166 10.1553V18.146C3.79167 18.6218 3.97059 19.0802 4.29289 19.4302C4.61519 19.7802 5.05731 19.9962 5.53149 20.0353L5.68749 20.0418H20.3125C20.7885 20.0418 21.247 19.8627 21.597 19.5402C21.947 19.2177 22.1629 18.7753 22.2018 18.3009L22.2083 18.146V10.1542ZM20.3125 5.9585H5.68749C5.2117 5.95851 4.75331 6.13743 4.40332 6.45973C4.05332 6.78203 3.83731 7.22415 3.79816 7.69833L3.79166 7.85433V8.31908L13 13.1648L22.2083 8.318V7.85433C22.2083 7.37837 22.0292 6.91983 21.7067 6.56981C21.3842 6.21979 20.9418 6.00389 20.4674 5.965L20.3125 5.9585Z" fill="#333333"/>
</svg>
