<svg width="26" height="26" viewBox="0 0 26 26" fill="none" xmlns="http://www.w3.org/2000/svg">
<path d="M5.68758 4.33325H20.3126C21.2119 4.33319 22.0771 4.67727 22.7308 5.2949C23.3845 5.91252 23.7771 6.75688 23.828 7.65475L23.8334 7.85408V18.1458C23.8335 19.0451 23.4894 19.9103 22.8718 20.564C22.2541 21.2177 21.4098 21.6103 20.5119 21.6612L20.3126 21.6666H5.68758C4.78827 21.6666 3.92302 21.3226 3.26933 20.7049C2.61565 20.0873 2.22308 19.243 2.17216 18.3451L2.16675 18.1458V7.85408C2.16669 6.95477 2.51077 6.08952 3.12839 5.43584C3.74602 4.78215 4.59037 4.38958 5.48825 4.33867L5.68758 4.33325ZM22.2084 10.154L13.3792 14.8015C13.2796 14.8542 13.17 14.8855 13.0575 14.8935C12.9451 14.9015 12.8322 14.8861 12.726 14.8481L12.622 14.8026L3.79175 10.1551V18.1458C3.79177 18.6215 3.97068 19.0799 4.29298 19.4299C4.61529 19.7799 5.05741 19.9959 5.53158 20.0351L5.68758 20.0416H20.3126C20.7885 20.0415 21.2471 19.8625 21.5971 19.5399C21.9471 19.2174 22.163 18.775 22.2019 18.3007L22.2084 18.1458V10.154ZM20.3126 5.95825H5.68758C5.21179 5.95827 4.7534 6.13719 4.40341 6.45949C4.05341 6.78179 3.8374 7.22391 3.79825 7.69809L3.79175 7.85408V8.31883L13.0001 13.1646L22.2084 8.31775V7.85408C22.2084 7.37812 22.0293 6.91959 21.7068 6.56957C21.3843 6.21955 20.9419 6.00364 20.4675 5.96475L20.3126 5.95825Z" fill="#404040"/>
</svg>
