<svg width="26" height="26" viewBox="0 0 26 26" fill="none" xmlns="http://www.w3.org/2000/svg">
<path d="M21.125 23.5625H20.9869C5.02125 22.6444 2.75438 9.17313 2.4375 5.06188C2.41197 4.74222 2.44976 4.42067 2.54871 4.11565C2.64766 3.81062 2.80583 3.52812 3.01415 3.28433C3.22247 3.04054 3.47684 2.84025 3.7627 2.69493C4.04856 2.54962 4.36028 2.46214 4.68 2.4375H9.15688C9.48233 2.43719 9.80038 2.5346 10.0698 2.71713C10.3393 2.89966 10.5477 3.15889 10.6681 3.46125L11.9031 6.5C12.022 6.79538 12.0515 7.11919 11.988 7.4312C11.9244 7.74321 11.7706 8.02967 11.5456 8.255L9.815 10.0019C10.0853 11.5381 10.821 12.9542 11.9225 14.0587C13.0241 15.1631 14.4382 15.9025 15.9738 16.1769L17.7369 14.43C17.9656 14.2075 18.2548 14.0573 18.5683 13.998C18.8818 13.9388 19.2059 13.9732 19.5 14.0969L22.5631 15.3238C22.8609 15.448 23.115 15.658 23.293 15.9272C23.471 16.1963 23.5648 16.5123 23.5625 16.835V21.125C23.5625 21.7715 23.3057 22.3915 22.8486 22.8486C22.3915 23.3057 21.7715 23.5625 21.125 23.5625ZM4.875 4.0625C4.65951 4.0625 4.45285 4.1481 4.30048 4.30048C4.14811 4.45285 4.0625 4.65951 4.0625 4.875V4.94C4.43625 9.75 6.83313 21.125 21.0763 21.9375C21.183 21.9441 21.29 21.9296 21.3911 21.8947C21.4922 21.8599 21.5854 21.8054 21.6655 21.7344C21.7455 21.6635 21.8107 21.5774 21.8574 21.4812C21.9041 21.385 21.9313 21.2805 21.9375 21.1737V16.835L18.8744 15.6081L16.5425 17.9237L16.1525 17.875C9.08375 16.9894 8.125 9.92063 8.125 9.8475L8.07625 9.4575L10.3838 7.12563L9.165 4.0625H4.875Z" fill="#333333"/>
</svg>
