<svg width="30" height="30" viewBox="0 0 30 30" fill="none" xmlns="http://www.w3.org/2000/svg">
<circle cx="15" cy="15" r="15" fill="#4C9EFF"/>
<path d="M10.9 15.4H19.1V16.94H19.9V14.6H15.4V13H14.6V14.6H10.1V16.94H10.9V15.4V15.4Z" fill="white"/>
<path d="M13 17.5H8C7.73478 17.5 7.48043 17.6054 7.29289 17.7929C7.10536 17.9804 7 18.2348 7 18.5V21.5C7 21.7652 7.10536 22.0196 7.29289 22.2071C7.48043 22.3946 7.73478 22.5 8 22.5H13C13.2652 22.5 13.5196 22.3946 13.7071 22.2071C13.8946 22.0196 14 21.7652 14 21.5V18.5C14 18.2348 13.8946 17.9804 13.7071 17.7929C13.5196 17.6054 13.2652 17.5 13 17.5ZM8 21.5V18.5H13V21.5H8Z" fill="white"/>
<path d="M22 17.5H17C16.7348 17.5 16.4804 17.6054 16.2929 17.7929C16.1054 17.9804 16 18.2348 16 18.5V21.5C16 21.7652 16.1054 22.0196 16.2929 22.2071C16.4804 22.3946 16.7348 22.5 17 22.5H22C22.2652 22.5 22.5196 22.3946 22.7071 22.2071C22.8946 22.0196 23 21.7652 23 21.5V18.5C23 18.2348 22.8946 17.9804 22.7071 17.7929C22.5196 17.6054 22.2652 17.5 22 17.5ZM17 21.5V18.5H22V21.5H17Z" fill="white"/>
<path d="M12.5 12.5H17.5C17.7652 12.5 18.0196 12.3946 18.2071 12.2071C18.3946 12.0196 18.5 11.7652 18.5 11.5V8.5C18.5 8.23478 18.3946 7.98043 18.2071 7.79289C18.0196 7.60536 17.7652 7.5 17.5 7.5H12.5C12.2348 7.5 11.9804 7.60536 11.7929 7.79289C11.6054 7.98043 11.5 8.23478 11.5 8.5V11.5C11.5 11.7652 11.6054 12.0196 11.7929 12.2071C11.9804 12.3946 12.2348 12.5 12.5 12.5ZM12.5 8.5H17.5V11.5H12.5V8.5Z" fill="white"/>
</svg>
