<svg width="30" height="30" viewBox="0 0 30 30" fill="none" xmlns="http://www.w3.org/2000/svg">
<path fill-rule="evenodd" clip-rule="evenodd" d="M15 30C23.2843 30 30 23.2843 30 15C30 6.71573 23.2843 0 15 0C6.71573 0 0 6.71573 0 15C0 23.2843 6.71573 30 15 30Z" fill="#2E41B6"/>
<path d="M15.7786 15.158C16.1564 14.8259 16.4594 14.4152 16.6671 13.9537C16.8748 13.4923 16.9823 12.9908 16.9822 12.4834C16.9822 11.5301 16.6093 10.6157 15.9454 9.94156C15.2815 9.26741 14.381 8.88867 13.4421 8.88867C12.5032 8.88867 11.6027 9.26741 10.9388 9.94156C10.2749 10.6157 9.90193 11.5301 9.90193 12.4834C9.90192 12.9908 10.0094 13.4923 10.2171 13.9537C10.4248 14.4152 10.7278 14.8259 11.1056 15.158C10.1144 15.6137 9.27353 16.3496 8.68339 17.2778C8.09326 18.206 7.77887 19.2871 7.77783 20.3919C7.77783 20.5826 7.85243 20.7655 7.98521 20.9003C8.11799 21.0351 8.29808 21.1109 8.48586 21.1109C8.67365 21.1109 8.85374 21.0351 8.98652 20.9003C9.1193 20.7655 9.1939 20.5826 9.1939 20.3919C9.1939 19.2479 9.64147 18.1507 10.4382 17.3417C11.2349 16.5327 12.3154 16.0782 13.4421 16.0782C14.5688 16.0782 15.6493 16.5327 16.446 17.3417C17.2427 18.1507 17.6903 19.2479 17.6903 20.3919C17.6903 20.5826 17.7649 20.7655 17.8977 20.9003C18.0304 21.0351 18.2105 21.1109 18.3983 21.1109C18.5861 21.1109 18.7662 21.0351 18.899 20.9003C19.0318 20.7655 19.1063 20.5826 19.1063 20.3919C19.1053 19.2871 18.7909 18.206 18.2008 17.2778C17.6107 16.3496 16.7697 15.6137 15.7786 15.158ZM13.4421 14.6403C13.022 14.6403 12.6113 14.5138 12.262 14.2768C11.9127 14.0398 11.6404 13.703 11.4797 13.3088C11.3189 12.9147 11.2768 12.4811 11.3588 12.0627C11.4408 11.6443 11.6431 11.26 11.9401 10.9583C12.2372 10.6567 12.6157 10.4512 13.0277 10.368C13.4397 10.2848 13.8668 10.3275 14.2549 10.4908C14.6431 10.654 14.9748 10.9305 15.2082 11.2852C15.4416 11.6398 15.5662 12.0569 15.5662 12.4834C15.5662 13.0555 15.3424 13.6041 14.9441 14.0086C14.5457 14.4131 14.0054 14.6403 13.4421 14.6403ZM20.3383 14.8704C20.7914 14.3522 21.0874 13.7122 21.1907 13.0272C21.2939 12.3423 21.1999 11.6416 20.9202 11.0096C20.6404 10.3776 20.1867 9.84114 19.6136 9.46486C19.0406 9.08858 18.3727 8.88849 17.6903 8.88867C17.5025 8.88867 17.3224 8.96442 17.1896 9.09925C17.0568 9.23408 16.9822 9.41695 16.9822 9.60763C16.9822 9.7983 17.0568 9.98117 17.1896 10.116C17.3224 10.2508 17.5025 10.3266 17.6903 10.3266C18.2536 10.3266 18.7939 10.5538 19.1922 10.9583C19.5906 11.3628 19.8144 11.9114 19.8144 12.4834C19.8134 12.8611 19.7148 13.2318 19.5284 13.5586C19.342 13.8854 19.0744 14.1567 18.7523 14.3455C18.6474 14.407 18.5597 14.4948 18.4977 14.6006C18.4357 14.7063 18.4015 14.8264 18.3983 14.9495C18.3954 15.0715 18.423 15.1923 18.4788 15.3005C18.5345 15.4087 18.6165 15.5006 18.7169 15.5678L18.9931 15.7547L19.0851 15.805C19.9386 16.2161 20.6586 16.8662 21.1603 17.6788C21.6621 18.4915 21.9247 19.4328 21.9172 20.3919C21.9172 20.5826 21.9918 20.7655 22.1246 20.9003C22.2574 21.0351 22.4375 21.1109 22.6253 21.1109C22.813 21.1109 22.9931 21.0351 23.1259 20.9003C23.2587 20.7655 23.3333 20.5826 23.3333 20.3919C23.3391 19.2887 23.067 18.2022 22.5428 17.2358C22.0186 16.2694 21.2597 15.4551 20.3383 14.8704Z" fill="white"/>
</svg>
