<svg width="30" height="30" viewBox="0 0 30 30" fill="none" xmlns="http://www.w3.org/2000/svg">
<circle cx="15" cy="15" r="15" fill="#00C48C"/>
<g clip-path="url(#clip0_484_1370)">
<path d="M22.1253 15.4716L19.3253 14.3974C19.2257 14.3592 19.0191 14.309 18.7858 14.3974L15.9858 15.4716C15.7257 15.5718 15.5556 15.8058 15.5556 16.066C15.5556 18.73 17.2253 20.5729 18.7858 21.1721C19.0191 21.2604 19.2233 21.2103 19.3253 21.1721C20.5722 20.6947 22.5556 19.038 22.5556 16.066C22.5556 15.8058 22.3854 15.5718 22.1253 15.4716ZM19.0556 20.0382V15.5241L21.3767 16.4145C21.2406 18.4937 19.8965 19.6467 19.0556 20.0382V20.0382ZM12.4444 15.1111C14.1628 15.1111 15.5556 13.7433 15.5556 12.0556C15.5556 10.3678 14.1628 9 12.4444 9C10.726 9 9.33333 10.3678 9.33333 12.0556C9.33333 13.7433 10.726 15.1111 12.4444 15.1111ZM14.7778 16.066C14.7778 16.0063 14.7972 15.9514 14.8045 15.8941C14.7437 15.8917 14.6854 15.875 14.6222 15.875H14.2163C13.6767 16.1185 13.0764 16.2569 12.4444 16.2569C11.8125 16.2569 11.2146 16.1185 10.6726 15.875H10.2667C8.46319 15.875 7 17.3121 7 19.0833V20.0764C7 20.709 7.52257 21.2222 8.16667 21.2222H16.7222C16.8875 21.2222 17.0455 21.1864 17.1889 21.1267C15.8764 20.1026 14.7778 18.3409 14.7778 16.066Z" fill="white"/>
</g>
<defs>
<clipPath id="clip0_484_1370">
<rect width="15.5556" height="12.2222" fill="white" transform="translate(7 9)"/>
</clipPath>
</defs>
</svg>
